<svg width="156" height="106" viewBox="0 0 156 106" fill="none" xmlns="http://www.w3.org/2000/svg">
<path d="M0 106L6.85156 90.3998C8.3849 90.3331 9.65156 90.1331 10.6516 89.7998C11.7182 89.4664 12.5182 88.6998 13.0516 87.4998C13.6516 86.2998 13.9516 84.3664 13.9516 81.6998V25C13.9516 23.2 13.9849 21.4666 14.0516 19.8C14.0516 19.8 14.2849 16.8666 14.3516 16C13.2849 16.0666 11.9516 16.1333 10.3516 16.2C8.75156 16.2 7.5849 16.2333 6.85156 16.3V0.0999756H33H57.4516V28H50.8516C50.8516 24.3333 50.2182 21.5666 48.9516 19.7C47.6849 17.8333 46.1182 16.6 44.2516 16C42.3849 15.3333 40.5516 15.0333 38.7516 15.1L35.1516 15.2C33.7516 15.2 32.5516 15.4 31.5516 15.8C30.5516 16.1333 29.7849 16.9333 29.2516 18.2C28.7182 19.4 28.4516 21.3 28.4516 23.9V59.6998H38.7516L38.3516 51.0998H46.0516V75.3998H39.4516C39.4516 72.5998 39.0182 70.5664 38.1516 69.2998C37.2849 68.0331 36.0849 67.2664 34.5516 66.9998C33.0849 66.6664 31.4516 66.5331 29.6516 66.5998H28.4516V80.5998C28.4516 82.3998 28.4182 84.1331 28.3516 85.7998C28.2849 87.4664 28.1849 88.7331 28.0516 89.5998C28.7849 89.5331 29.7516 89.4998 30.9516 89.4998C32.1516 89.4331 33.3182 89.3998 34.4516 89.3998C35.6516 89.3331 36.4849 89.2998 36.9516 89.2998L42.5 106H21.9016H0Z" fill="black"/>
<path d="M97.7805 97.9998C95.5138 92.4665 94.7667 86.0665 92.5 80.5998C90.3 75.1331 88.2667 64.2665 86 58.7998C85.4667 57.5331 82.4471 44.7665 81.5805 42.4998C80.7805 40.1665 79.9138 37.4998 78.9805 34.4998C78.1138 31.4998 77.3138 28.3998 76.5805 25.1998C76.7138 28.9331 76.8138 32.4665 76.8805 35.7998C76.9471 39.0665 76.9471 42.1998 76.8805 45.1998C76.8805 46.6665 76.8805 48.1665 76.8805 49.6998C76.8805 51.2331 76.8471 52.7665 76.7805 54.2998C76.7805 55.7665 76.7805 57.2665 76.7805 58.7998C76.7805 60.2665 77.3805 79.0665 77.3805 80.5998C77.3805 82.3998 77.3138 84.1331 77.1805 85.7998C77.1138 87.4664 77.0138 88.7331 76.8805 89.5998C78.0138 89.4665 79.3805 89.3998 80.9805 89.3998C82.6471 89.3331 83.8138 89.2998 84.4805 89.2998L89.5 106H57.4516L61.6805 90.3998C63.2138 90.3331 64.4805 90.1331 65.4805 89.7998C66.5471 89.4664 67.3471 88.6998 67.8805 87.4998C68.4805 86.2998 68.7805 84.3665 68.7805 81.6998V26.0998C68.8471 24.2998 68.9138 22.5665 68.9805 20.8998C69.0471 19.2331 69.1138 17.9665 69.1805 17.0998C68.1138 17.1665 66.7805 17.2331 65.1805 17.2998C63.5805 17.2998 62.4138 17.3331 61.6805 17.3998V1.19979H83.7805L96.4 48.7C97 50.2333 97.0471 52.2331 97.7805 54.2998C98.5138 56.2998 99.3333 60.0667 100 62C100.667 63.8667 104.747 80.3664 105.08 81.4998H105.18C106.047 79.1664 106.247 59.5998 106.98 57.3998C107.714 55.1998 108.48 53.0665 109.28 50.9998C111.88 44.0665 114.447 37.1665 116.98 30.2998C119.58 23.4331 122.18 8.06646 124.78 1.19979H147.88V16.2998C146.414 16.3665 145.114 16.5665 143.98 16.8998C142.847 17.2331 141.98 17.9998 141.38 19.1998C140.847 20.3331 140.614 22.2665 140.68 24.9998L142.78 80.5998C142.914 82.3998 142.914 84.1331 142.78 85.7998C142.647 87.4664 142.514 88.7331 142.38 89.5998C143.514 89.4665 144.88 89.3998 146.48 89.3998C148.147 89.3331 149.314 89.2998 149.98 89.2998L155.5 106H117.58L122.18 90.3998C123.714 90.3331 125.014 90.1331 126.08 89.7998C127.214 89.4664 128.047 88.6998 128.58 87.4998C129.18 86.2998 129.414 84.3665 129.28 81.6998L127.88 43.1998C127.88 42.3998 127.814 41.0331 127.68 39.0998C127.547 37.0998 127.414 34.9331 127.28 32.5998C127.214 30.1998 127.147 27.9665 127.08 25.8998C126.88 26.3665 126.68 26.8331 126.48 27.2998C126.28 27.6998 126.114 28.1331 125.98 28.5998L107.08 97.9998H97.7805Z" fill="black"/>
</svg>
